<?xml version="1.0" encoding="UTF-8" standalone="no"?>
<!-- Created with Inkscape (http://www.inkscape.org/) -->

<svg
   version="1.1"
   id="svg2"
   width="397.36761"
   height="166.22121"
   viewBox="0 0 397.36761 166.22121"
   xmlns="http://www.w3.org/2000/svg"
   xmlns:svg="http://www.w3.org/2000/svg">
  <defs
     id="defs6" />
  <g
     id="g8"
     transform="matrix(1.3333333,0,0,-1.3333333,1.3333333,164.88787)">
    <g
       id="g10">
      <text
         xml:space="preserve"
         transform="matrix(1,0,0,-1,153.1704,0.5411)"
         style="font-variant:normal;font-weight:normal;font-size:28.462px;font-family:FuturaBT;-inkscape-font-specification:FuturaBT-Book;writing-mode:lr-tb;fill:#00a0e3;fill-opacity:1;fill-rule:nonzero;stroke:none"
         id="text14"><tspan
           x="0 20.634951 33.1203 53.612942"
           y="0"
           id="tspan12">CLUB</tspan></text>
      <text
         xml:space="preserve"
         transform="matrix(1,0,0,-1,76.6568,0.5122)"
         style="font-variant:normal;font-weight:normal;font-size:28.462px;font-family:FuturaBT;-inkscape-font-specification:FuturaBT-Book;writing-mode:lr-tb;fill:#ff6633;fill-opacity:1;fill-rule:nonzero;stroke:none"
         id="text18"><tspan
           x="0 19.811899 30.174801 53.8106"
           y="0"
           id="tspan16">KIDS</tspan></text>
      <g
         id="g20">
        <path
           d="m 198.3898,40.8081 20.5509,0.0085 1.0204,17.8433 c 1.4607,-0.6809 12.2344,-11.0319 14.2433,-12.9855 3.63,-3.53 2.6603,-4.9255 8.8648,-4.8898 4.6295,0.0266 9.2548,0.0343 13.8855,0.0343 -0.6843,2.6819 -5.8303,10.6041 -7.7154,13.8909 -2.7099,4.7256 -5.4011,9.3628 -8.1464,13.9082 -2.018,3.3412 -2.1949,3.2797 0.1805,6.4411 1.6719,2.2252 3.1054,4.2515 4.794,6.5804 1.5908,2.1929 8.0776,10.7192 8.7117,12.619 l -22.2503,0.0898 C 229.7891,91.751 223.3123,81.5216 221.0221,80.0881 l 1.19,34.0104 -26.865,0.002 3.0427,-73.2923 z"
           style="fill:#c9d636;fill-opacity:1;fill-rule:evenodd;stroke:none"
           id="path22" />
        <path
           d="m 91.3847,49.487 c -2.1741,2.7036 -4.5493,6.0998 -7.0914,8.2199 -8.4183,-6.3077 -21.9013,-4.9034 -21.8427,3.9574 9.0976,-0.7262 18.8204,-1.0834 25.0847,3.6692 6.3133,4.7897 7.1725,14.4391 2.4335,21.5881 C 82.317,98.4648 56.3581,98.6448 45.8762,88.9807 28.942,73.368 36.7875,37.332 70.3185,39.7936 79.403,40.4603 87.438,44.6173 91.3847,49.487 Z M 61.9492,73.5846 c 3.3174,-0.944 6.9956,-1.5421 10.5599,-0.51 3.4364,0.9953 5.4607,4.6692 2.8131,7.8727 -4.1587,5.0315 -13.8892,-0.1446 -13.373,-7.3627"
           style="fill:#fd9e0f;fill-opacity:1;fill-rule:evenodd;stroke:none"
           id="path24" />
        <path
           d="m 111.1351,105.4389 0.3243,-11.0942 -6.5248,-0.0355 -1.548,-14.6146 8.7148,-0.0269 c 0.1605,-11.2972 -0.3968,-25.8497 5.313,-33.607 7.1354,-9.6945 19.802,-6.6756 28.3726,-1.491 l -2.1787,10.427 c -7.4529,-0.1372 -8.4292,-1.8394 -7.7777,12.2527 0.5734,12.405 -0.8184,12.3324 3.3482,12.4977 1.6858,0.0666 3.9192,-0.0751 5.6858,-0.0751 l -1.2773,14.5142 -6.5557,0.1896 0.7699,16.223 z"
           style="fill:#00a0e3;fill-opacity:1;fill-rule:evenodd;stroke:none"
           id="path26" />
        <path
           d="M 23.5071,40.9844 26.8342,114.0996 0,114.0854 2.787,43.8344 c 0.2396,-3.8923 0.0567,-3.0373 8.46,-3.013 3.822,0.0111 8.5714,-0.2627 12.2601,0.163"
           style="fill:#ff6633;fill-opacity:1;fill-rule:evenodd;stroke:none"
           id="path28" />
        <path
           d="m 159.7955,40.9671 c 3.6941,-0.3979 15.5528,-0.5411 19.118,-0.2179 3.7703,0.3421 2.7468,6.6945 3.3724,15.758 0.8322,12.0623 2.2073,24.6918 2.6628,36.8371 -12.0141,-3.7448 -17.1674,-2.7802 -28.7637,0 z"
           style="fill:#ff6633;fill-opacity:1;fill-rule:evenodd;stroke:none"
           id="path30" />
        <path
           d="m 270.8935,40.8872 c 2.4247,-0.1046 19.5211,-1.135 21.0486,0.7691 0.8011,1.3901 3.9172,46.2543 4.0836,51.5996 -4.9416,-1.1251 -8.0716,-2.1422 -13.9161,-2.3378 -6.8423,-0.229 -9.2038,1.3235 -14.7566,2.2584 z"
           style="fill:#ff6633;fill-opacity:1;fill-rule:evenodd;stroke:none"
           id="path32" />
        <path
           d="m 277.4438,121.8671 c -15.685,-4.8283 -9.4842,-27.915 8.4251,-23.2438 15.8528,4.1349 9.4606,28.749 -8.4251,23.2438"
           style="fill:#ff6633;fill-opacity:1;fill-rule:evenodd;stroke:none"
           id="path34" />
        <path
           d="m 166.5471,121.8702 c -15.9954,-3.8585 -9.8224,-27.574 7.9483,-23.2781 15.2722,3.6924 11.1895,27.8949 -7.9483,23.2781"
           style="fill:#ff6633;fill-opacity:1;fill-rule:evenodd;stroke:none"
           id="path36" />
      </g>
    </g>
  </g>
</svg>
