<?xml version="1.0" encoding="UTF-8"?> <svg xmlns="http://www.w3.org/2000/svg" width="955" height="55" viewBox="0 0 955 55" fill="none"><path d="M38.0583 25.1649C38.6927 36.14 33.8078 47.813 22.0714 50.5409C9.1297 53.5226 1.26316 41.3421 0.945958 29.8595C0.628758 19.7091 7.60715 6.95768 18.9629 6.95768C19.9145 6.95768 20.6758 7.21144 21.2467 7.65552C30.2552 9.0512 37.4873 15.2683 38.0583 25.1649ZM23.3402 41.5959C29.4305 38.1067 31.0799 31.1917 30.0649 24.7208C29.0498 18.1231 23.9112 15.2049 17.6306 15.2049C17.3134 15.2049 16.9962 15.2049 16.7425 15.1414C10.9695 16.9177 8.30499 25.5456 8.8125 30.8111C9.51034 38.4239 14.9662 46.3539 23.3402 41.5959ZM70.824 7.7824C75.8357 7.7824 75.8357 15.6489 70.824 15.6489C67.081 15.6489 63.4015 15.6489 59.722 15.6489C59.0242 21.2951 59.8489 27.3853 59.9123 33.0315C59.9758 38.1701 59.9123 43.3722 59.9123 48.5108C59.9123 53.5226 52.1092 53.5226 52.1092 48.5108C52.1092 37.8529 50.777 26.4337 51.9189 15.7758C48.8738 15.8393 45.8287 15.9661 42.7836 16.093C37.7084 16.2833 37.7718 8.48024 42.7836 8.28992C52.1092 7.84584 61.4349 7.7824 70.824 7.7824ZM99.9038 25.3552C106.946 29.6057 109.103 39.5023 102.568 47.242C98.3178 52.2538 91.9738 53.4591 85.8835 51.1118C79.5396 48.6377 77.1288 45.0216 75.1622 38.8679C73.5762 34.0465 81.1255 32.0164 82.7115 36.7744C83.6631 39.8195 84.5513 41.7862 87.533 43.3087C90.6415 44.8947 93.877 44.9582 96.3511 42.484C102.188 36.5841 96.7952 30.2401 89.6899 31.1917C84.8685 31.8261 84.9954 24.9746 88.6115 23.5155C91.6566 22.2467 95.8436 19.4553 94.7651 15.7758C93.1791 10.1931 86.1373 13.9361 85.8835 18.3134C85.6298 23.3252 77.8267 23.3252 78.0804 18.3134C78.588 8.4168 90.8953 0.106174 99.1425 8.16304C102.568 11.5254 103.71 17.1715 102.251 21.6123C101.744 23.008 100.919 24.2133 99.9038 25.3552ZM133.898 30.2401C137.07 32.8412 138.275 37.5991 137.831 41.5959C136.626 52.8247 123.177 52 114.93 52C112.646 52 111.377 50.3506 111.187 48.5742C111.123 48.257 111.06 47.8764 111.06 47.4323C111.06 35.125 109.981 22.7542 110.743 10.4469C110.996 5.43512 118.799 5.43512 118.546 10.4469C118.228 16.093 118.228 21.7392 118.419 27.3853C118.736 27.3219 119.18 27.195 119.624 27.195C124.446 27.1316 129.965 26.9412 133.898 30.2401ZM129.901 41.4055C130.726 39.3755 129.648 36.4572 127.744 35.6325C125.27 34.6175 122.225 34.9981 119.624 34.9981C119.243 34.9981 118.926 34.9981 118.609 34.9347C118.736 38.0432 118.799 41.2152 118.863 44.3872C123.05 44.5775 128.569 44.5141 129.901 41.4055ZM142.526 9.43184C143.287 4.48353 150.837 6.57704 150.012 11.5254C148.236 22.1833 149.504 33.9196 149.504 44.7679C149.504 49.7796 141.701 49.7796 141.701 44.7679C141.701 33.1584 140.623 20.9145 142.526 9.43184ZM177.265 29.0982C179.993 31.1283 182.023 33.7928 182.847 37.2819C184.433 44.4507 178.66 50.4774 171.872 51.5559C168.129 52.1903 161.912 52.7613 158.36 50.9215C154.997 49.2086 155.505 45.7829 155.505 42.484C155.505 31.1917 155.568 19.8994 155.378 8.67056C155.315 6.70392 156.456 5.49856 157.916 5.05449C158.296 4.86416 158.74 4.67384 159.248 4.54696C167.876 2.83409 180.437 5.18136 183.165 14.6339C184.751 19.9629 182.594 24.8477 178.407 28.2735C178.026 28.5272 177.645 28.8444 177.265 29.0982ZM174.917 40.9615C176.948 35.4422 168.193 32.8412 163.371 32.3336C163.371 36.0766 163.371 39.8195 163.371 43.5625C163.371 43.6259 163.308 43.6894 163.308 43.8163C164.64 43.9431 166.353 44.1335 166.734 44.1335C169.462 44.1335 173.839 44.07 174.917 40.9615ZM163.308 24.4036C168.637 24.2133 178.407 23.1349 175.362 16.093C173.966 12.921 167.432 11.7157 163.245 11.906C163.308 16.0296 163.308 20.2166 163.308 24.4036ZM211.652 30.2401C214.824 32.8412 216.029 37.5991 215.585 41.5959C214.38 52.8247 200.93 52 192.683 52C190.399 52 189.13 50.3506 188.94 48.5742C188.877 48.257 188.813 47.8764 188.813 47.4323C188.813 35.125 187.735 22.7542 188.496 10.4469C188.75 5.43512 196.553 5.43512 196.299 10.4469C195.982 16.093 195.982 21.7392 196.172 27.3853C196.489 27.3219 196.934 27.195 197.378 27.195C202.199 27.1316 207.718 26.9412 211.652 30.2401ZM207.655 41.4055C208.48 39.3755 207.401 36.4572 205.498 35.6325C203.024 34.6175 199.979 34.9981 197.378 34.9981C196.997 34.9981 196.68 34.9981 196.363 34.9347C196.489 38.0432 196.553 41.2152 196.616 44.3872C200.803 44.5775 206.323 44.5141 207.655 41.4055ZM220.279 9.43184C221.041 4.48353 228.59 6.57704 227.765 11.5254C225.989 22.1833 227.258 33.9196 227.258 44.7679C227.258 49.7796 219.455 49.7796 219.455 44.7679C219.455 33.1584 218.376 20.9145 220.279 9.43184ZM289.07 25.3552C289.704 36.3303 284.819 48.0033 273.083 50.7312C260.141 53.7129 252.274 41.5324 251.957 30.0498C251.64 19.8994 258.618 7.148 269.974 7.148C270.926 7.148 271.687 7.40176 272.258 7.84584C281.266 9.24152 288.499 15.4586 289.07 25.3552ZM274.352 41.7862C280.442 38.297 282.091 31.382 281.076 24.9112C280.061 18.3134 274.923 15.3952 268.642 15.3952C268.325 15.3952 268.008 15.3952 267.754 15.3317C261.981 17.1081 259.316 25.7993 259.824 31.0014C260.522 38.6142 265.977 46.5442 274.352 41.7862ZM344.277 30.367C344.341 35.9497 344.467 42.0399 343.77 47.6226C343.199 52.571 335.332 52.571 335.967 47.6226C336.664 42.2937 336.284 36.711 336.347 31.382C336.347 28.5907 336.22 25.7359 336.157 22.9445C336.157 21.0413 336.664 17.3618 336.22 14.8877C331.653 14.7608 326.831 14.8877 322.327 15.3952C321.819 26.1165 321.375 36.9013 321.375 47.6226C321.375 52.6344 313.572 52.6344 313.572 47.6226C313.572 35.7594 314.143 23.8327 314.651 11.9694C314.778 10.3834 315.793 8.48024 317.569 8.22648C323.215 7.33832 329.242 7.08456 334.952 7.08456C339.519 7.02112 342.691 7.59208 343.579 12.6038C344.594 18.25 344.214 24.594 344.277 30.367ZM367.995 7.21144C377.702 8.734 379.541 19.4553 377.448 27.766C374.974 37.5357 366.726 39.3755 357.718 38.3604C357.718 41.2787 357.718 44.1969 358.162 46.9882C358.86 51.9366 351.374 54.0301 350.613 49.0818C348.963 37.9798 350.359 26.1165 350.232 14.8877C350.232 11.6522 350.232 8.22648 353.912 7.08456C357.845 5.81576 363.999 6.57704 367.995 7.21144ZM370.025 23.6424C370.343 20.6607 370.723 16.5371 367.678 15.078C364.823 13.8092 361.144 15.2049 358.226 14.7608C358.162 14.7608 358.162 14.7608 358.162 14.7608C358.162 16.3468 358.162 18.6306 358.162 18.7575C358.226 22.0564 358.162 25.3552 358.099 28.6541C358.099 29.2885 358.099 29.9229 358.035 30.5573C360.953 30.938 364.95 31.5089 367.488 29.8595C369.264 28.6541 369.772 25.9896 370.025 23.6424ZM417.503 25.3552C418.138 36.3303 413.253 48.0033 401.516 50.7312C388.575 53.7129 380.708 41.5324 380.391 30.0498C380.074 19.8994 387.052 7.148 398.408 7.148C399.359 7.148 400.121 7.40176 400.692 7.84584C409.7 9.24152 416.932 15.4586 417.503 25.3552ZM402.785 41.7862C408.875 38.297 410.525 31.382 409.51 24.9112C408.495 18.3134 403.356 15.3952 397.076 15.3952C396.758 15.3952 396.441 15.3952 396.187 15.3317C390.414 17.1081 387.75 25.7993 388.257 31.0014C388.955 38.6142 394.411 46.5442 402.785 41.7862ZM464.797 11.5254C465.875 21.4854 467.461 32.0799 465.812 42.1034C465.304 45.2119 464.162 49.3355 460.863 50.6043C456.993 52.0634 451.601 51.3656 447.541 51.6194C441.831 52 436.058 52.1269 430.349 51.6828C426.415 51.3656 423.497 50.3506 422.482 46.227C421.15 41.0249 422.292 34.7444 422.102 29.4154C421.911 23.3252 421.467 17.3618 421.467 11.2716C421.404 6.25984 429.27 6.25984 429.27 11.2716C429.27 20.5973 430.032 29.8595 429.968 39.2486C429.968 40.5174 429.461 43.2453 430.349 43.8797C430.92 44.2603 435.297 44.07 436.058 44.1335C436.946 44.1335 437.835 44.1335 438.723 44.1335C438.659 44.07 438.659 44.0066 438.659 43.8797C437.644 33.539 437.01 22.8177 437.073 12.4135C437.073 7.40176 444.94 7.40176 444.876 12.4135C444.813 22.8177 445.447 33.539 446.462 43.8797C446.843 43.8797 447.16 43.8163 447.541 43.8163C449.508 43.6894 456.042 44.3872 457.818 43.2453C457.184 43.4991 458.199 40.2636 458.326 39.6292C458.643 36.9013 458.706 34.11 458.579 31.382C458.262 24.7208 457.691 18.1231 456.993 11.5254C456.486 6.5136 464.289 6.57704 464.797 11.5254ZM504.107 37.5991C507.596 33.9196 513.115 39.5023 509.626 43.1184C505.185 47.813 500.935 52.1269 494.146 52C487.739 51.8097 480.761 50.4774 476.066 45.7195C467.882 37.3454 468.2 20.7241 476.13 12.2232C480.824 7.148 488.564 5.94264 495.225 6.64048C502.584 7.4652 506.771 12.0329 509.182 18.8209C510.958 23.8961 511.021 29.5423 504.614 30.2401C495.923 31.1283 486.724 30.7476 477.906 30.6842C478.16 34.3003 479.302 37.7895 481.649 40.2002C484.504 43.1819 490.086 44.4507 494.146 44.1335C498.524 43.8163 501.252 40.5808 504.107 37.5991ZM480.38 19.6457C479.809 20.6607 479.302 21.7392 478.921 22.8811C483.235 22.8811 487.485 23.008 491.799 22.7542C494.273 22.6273 496.747 22.3736 499.222 22.3736C500.11 22.3736 500.998 22.437 501.886 22.437C501.315 20.7241 500.427 18.5037 500.3 18.3134C498.333 14.9511 496.24 14.4436 492.56 14.3801C487.549 14.2533 483.044 15.1414 480.38 19.6457ZM559.307 44.2603C564.319 44.1969 564.319 52 559.307 52.0634C552.519 52.1269 545.858 51.429 539.07 51.3022C531.203 51.1118 523.337 51.5559 515.47 51.429C510.458 51.429 510.458 43.5625 515.47 43.6259C517.31 43.6894 519.086 43.6259 520.926 43.6259C522.702 34.4906 525.177 25.4187 527.841 16.4737C528.729 13.4285 529.3 9.36839 532.409 7.71896C535.581 5.94264 540.719 6.76736 544.208 6.95768C552.392 7.40176 553.153 10.4469 553.851 18.3134C554.613 26.9412 554.93 35.5056 554.993 44.1969C556.389 44.1969 557.848 44.2603 559.307 44.2603ZM539.07 43.4991C541.798 43.5625 544.462 43.6894 547.127 43.8163C547.127 37.5357 547.063 31.2552 546.556 24.9746C546.302 21.8661 546.239 18.7575 545.794 15.7124C545.731 15.4586 545.668 15.2049 545.668 15.0145C544.462 14.9511 542.813 14.9511 542.496 14.8877C541.354 14.8242 538.435 14.1264 537.357 14.6339C536.278 15.1414 536.215 15.9027 535.708 17.4253C534.946 20.0897 534.185 22.7542 533.487 25.4821C531.838 31.4455 530.188 37.4723 528.919 43.4991C532.282 43.4356 535.708 43.4356 539.07 43.4991ZM608.624 11.5254C609.703 21.4854 611.289 32.0799 609.639 42.1034C609.132 45.2119 607.99 49.3355 604.691 50.6043C600.821 52.0634 595.429 51.3656 591.369 51.6194C585.659 52 579.886 52.1269 574.176 51.6828C570.243 51.3656 567.325 50.3506 566.31 46.227C564.978 41.0249 566.12 34.7444 565.929 29.4154C565.739 23.3252 565.295 17.3618 565.295 11.2716C565.231 6.25984 573.098 6.25984 573.098 11.2716C573.098 20.5973 573.859 29.8595 573.796 39.2486C573.796 40.5174 573.288 43.2453 574.176 43.8797C574.747 44.2603 579.125 44.07 579.886 44.1335C580.774 44.1335 581.662 44.1335 582.55 44.1335C582.487 44.07 582.487 44.0066 582.487 43.8797C581.472 33.539 580.838 22.8177 580.901 12.4135C580.901 7.40176 588.768 7.40176 588.704 12.4135C588.641 22.8177 589.275 33.539 590.29 43.8797C590.671 43.8797 590.988 43.8163 591.369 43.8163C593.335 43.6894 599.87 44.3872 601.646 43.2453C601.011 43.4991 602.026 40.2636 602.153 39.6292C602.471 36.9013 602.534 34.11 602.407 31.382C602.09 24.7208 601.519 18.1231 600.821 11.5254C600.314 6.5136 608.117 6.57704 608.624 11.5254ZM648.442 45.7829C650.852 50.1602 644.128 54.0935 641.654 49.7162C640.829 48.1936 640.321 46.4807 640.068 44.7679C635.563 48.8914 629.6 51.3656 624.081 50.3506C616.912 48.9549 615.77 42.4206 615.326 36.2035C614.692 28.0197 615.326 19.7091 615.326 11.5254C615.326 6.45016 623.129 6.45016 623.129 11.5254C623.129 16.7274 623.129 21.8661 622.875 27.0047C622.749 30.4304 622.368 35.1884 623.319 38.4873C626.238 48.1936 639.116 37.4088 639.75 31.4455C639.814 31.0648 639.877 30.7476 640.004 30.4939V11.7157C640.004 6.70392 647.807 6.70392 647.807 11.7157V30.7476C647.807 34.8712 646.348 42.0399 648.442 45.7829ZM684.157 46.4807C687.265 50.414 680.477 54.3473 677.432 50.414C675.402 47.813 674.197 44.3872 672.42 41.5959C671.152 39.6927 669.756 37.8529 668.36 36.0131C665.188 39.9464 661.382 44.2603 659.859 48.5742C659.859 50.9215 657.956 53.2688 655.101 52.4441C654.975 52.3806 654.848 52.3806 654.784 52.3172C652.691 51.7462 651.485 49.5893 651.993 47.4958C653.642 41.2787 659.479 35.2519 663.285 30.1767C663.475 29.9229 663.602 29.6692 663.793 29.4154C660.05 23.9596 656.307 18.5672 652.754 13.0479C650.026 8.734 656.814 4.86416 659.479 9.0512C662.397 13.6823 665.506 18.1231 668.614 22.6273C671.532 18.3134 674.387 13.9361 677.178 9.55872C679.906 5.30824 686.631 9.24152 683.967 13.492C680.541 18.8844 676.988 24.2133 673.245 29.4788C675.339 32.524 677.686 35.3153 679.653 38.4873C681.239 41.0249 682.381 44.07 684.157 46.4807ZM736.123 39.2486C739.865 35.8863 745.448 41.4055 741.642 44.7679C735.552 50.2237 727.241 54.601 718.93 51.2387C710.239 47.6861 707.575 36.8379 707.892 28.4004C708.146 20.0897 711.381 10.3834 720.326 7.71896C727.875 5.49856 735.171 9.0512 739.865 14.7608C743.037 18.6306 737.518 24.2133 734.346 20.3435C731.809 17.2349 729.081 14.7608 724.703 15.0145C717.788 15.3952 715.885 22.7542 715.695 28.4004C715.505 33.0315 716.393 41.469 721.341 43.8163C726.543 46.2904 732.443 42.5475 736.123 39.2486ZM790.01 29.1616C790.39 35.3787 790.644 41.5324 790.644 47.7495C790.644 52.7613 782.841 52.7613 782.841 47.7495C782.841 41.5324 782.524 35.3787 782.143 29.1616C782.08 27.8294 781.953 26.4972 781.826 25.1015C781.382 25.7993 781.001 26.4337 780.557 27.1316C777.512 32.1433 775.165 38.297 771.358 42.8012C769.646 44.8313 766.537 43.8797 765.205 41.9765C762.223 37.5991 759.812 32.7777 757.148 28.21C756.26 26.7509 755.498 25.2918 754.674 23.7693C754.293 31.6358 753.976 39.4389 753.976 47.3054C753.976 52.3172 746.173 52.3172 746.173 47.3054C746.173 35.125 746.807 23.0714 747.505 10.9544C747.759 7.33832 751.565 6.06952 754.23 8.16304C758.099 11.2082 760.51 18.3134 762.857 22.5005C764.824 25.9896 766.727 29.4788 768.757 32.9046C770.914 29.2885 772.691 25.038 774.721 21.6757C777.068 17.8059 779.796 13.9995 781.699 9.93935C783.285 6.45016 789.312 8.0996 788.995 11.906C788.487 17.6156 789.629 23.5155 790.01 29.1616ZM828.255 37.5991C831.744 33.9196 837.263 39.5023 833.774 43.1184C829.333 47.813 825.083 52.1269 818.295 52C811.887 51.8097 804.909 50.4774 800.214 45.7195C792.03 37.3454 792.348 20.7241 800.278 12.2232C804.972 7.148 812.712 5.94264 819.373 6.64048C826.732 7.4652 830.919 12.0329 833.33 18.8209C835.106 23.8961 835.17 29.5423 828.762 30.2401C820.071 31.1283 810.872 30.7476 802.054 30.6842C802.308 34.3003 803.45 37.7895 805.797 40.2002C808.652 43.1819 814.234 44.4507 818.295 44.1335C822.672 43.8163 825.4 40.5808 828.255 37.5991ZM804.528 19.6457C803.957 20.6607 803.45 21.7392 803.069 22.8811C807.383 22.8811 811.633 23.008 815.947 22.7542C818.421 22.6273 820.896 22.3736 823.37 22.3736C824.258 22.3736 825.146 22.437 826.034 22.437C825.463 20.7241 824.575 18.5037 824.448 18.3134C822.482 14.9511 820.388 14.4436 816.709 14.3801C811.697 14.2533 807.193 15.1414 804.528 19.6457ZM871.465 13.8726C870.831 15.9027 871.592 19.0747 871.592 21.1048C871.592 23.8327 871.592 26.4972 871.592 29.1616V47.6226C871.592 52.6344 863.725 52.6344 863.725 47.6226V41.1518C858.523 41.0883 853.131 40.8346 847.865 41.3421C847.992 43.5625 848.056 45.8463 848.056 48.0667C848.056 53.0785 840.189 53.0785 840.189 48.0667C840.189 35.6959 838.73 23.3886 838.667 11.0178C838.603 6.00608 846.406 6.00608 846.47 11.0178C846.47 18.5672 847.104 26.1165 847.485 33.6659C852.941 33.1584 858.333 33.3487 863.725 33.3487V27.0681C863.725 22.3736 862.584 16.2833 863.916 11.7791C865.311 6.95768 872.861 9.0512 871.465 13.8726ZM915.56 33.7928C915.56 38.4239 915.497 42.9281 915.941 47.4958C916.322 52.571 908.518 52.5075 908.074 47.4958C907.947 46.0367 907.884 44.5775 907.821 43.1184C907.186 43.8163 906.552 44.4507 905.791 45.0851C898.431 51.2387 885.046 53.8398 879.082 44.4507C873.056 35.0615 875.403 21.2317 883.587 13.9995C890.311 8.0996 901.54 7.90928 907.313 15.0145C907.44 15.078 907.63 15.2049 907.757 15.3952C907.884 14.0629 908.011 12.7941 908.201 11.4619C909.089 6.5136 916.639 8.67056 915.751 13.5554C914.672 20.0263 915.56 27.2584 915.56 33.7928ZM884.475 38.0432C889.423 51.6828 914.862 33.2218 902.428 21.0413C902.111 20.7876 901.921 20.4704 901.73 20.1532C901.413 19.8994 901.096 19.6457 900.779 19.265C897.67 15.1414 890.248 18.1231 887.583 20.9779C883.587 25.2918 882.508 32.5874 884.475 38.0432ZM951.586 46.4807C954.694 50.414 947.906 54.3473 944.861 50.414C942.831 47.813 941.626 44.3872 939.849 41.5959C938.581 39.6927 937.185 37.8529 935.789 36.0131C932.617 39.9464 928.811 44.2603 927.288 48.5742C927.288 50.9215 925.385 53.2688 922.53 52.4441C922.403 52.3806 922.276 52.3806 922.213 52.3172C920.12 51.7462 918.914 49.5893 919.422 47.4958C921.071 41.2787 926.908 35.2519 930.714 30.1767C930.904 29.9229 931.031 29.6692 931.221 29.4154C927.479 23.9596 923.736 18.5672 920.183 13.0479C917.455 8.734 924.243 4.86416 926.908 9.0512C929.826 13.6823 932.934 18.1231 936.043 22.6273C938.961 18.3134 941.816 13.9361 944.607 9.55872C947.335 5.30824 954.06 9.24152 951.395 13.492C947.97 18.8844 944.417 24.2133 940.674 29.4788C942.768 32.524 945.115 35.3153 947.081 38.4873C948.667 41.0249 949.809 44.07 951.586 46.4807Z" fill="white"></path></svg> 