<?xml version="1.0" encoding="UTF-8"?> <svg xmlns="http://www.w3.org/2000/svg" width="34" height="34" viewBox="0 0 34 34" fill="none"><path d="M0 17C0 7.61116 7.61116 0 17 0C26.3888 0 34 7.61116 34 17C34 26.3888 26.3888 34 17 34C7.61116 34 0 26.3888 0 17Z" fill="white"></path><g clip-path="url(#clip0_0_156)"><path fill-rule="evenodd" clip-rule="evenodd" d="M8.12221 7.03442C8.71394 7.03442 9.19364 7.51412 9.19364 8.10585V11.6773C9.19364 12.3403 9.45703 12.9762 9.92587 13.445C10.1301 13.6493 10.3661 13.8146 10.6222 13.9361V8.10585C10.6222 7.51412 11.1019 7.03442 11.6936 7.03442C12.2854 7.03442 12.7651 7.51412 12.7651 8.10585V13.9361C13.0233 13.8136 13.2589 13.6476 13.4614 13.445C13.6936 13.2129 13.8777 12.9373 14.0033 12.634C14.129 12.3307 14.1936 12.0056 14.1936 11.6773V8.10585C14.1936 7.51412 14.6733 7.03442 15.2651 7.03442C15.8568 7.03442 16.3365 7.51412 16.3365 8.10585V11.6773C16.3365 12.287 16.2164 12.8907 15.9831 13.454C15.7498 14.0173 15.4078 14.5291 14.9766 14.9603C14.5455 15.3914 14.0337 15.7334 13.4704 15.9667C13.3561 16.0141 13.2402 16.0567 13.1229 16.0947V25.5716C13.1229 26.3605 12.4833 27.0002 11.6943 27.0002C10.9054 27.0002 10.2658 26.3605 10.2658 25.5716V16.0951C9.57264 15.8711 8.93531 15.485 8.41064 14.9603C7.53994 14.0896 7.05078 12.9086 7.05078 11.6773V8.10585C7.05078 7.51412 7.53048 7.03442 8.12221 7.03442ZM22.4797 7.03442C19.9485 7.03442 18.2782 9.50134 18.2782 12.0185C18.2782 14.0246 19.3391 15.9987 21.0511 16.7177V25.5716C21.0511 26.3606 21.6907 27.0002 22.4797 27.0002C23.2687 27.0002 23.9083 26.3606 23.9083 25.5716V16.7178C25.6204 15.9988 26.6813 14.0246 26.6813 12.0185C26.6813 9.50134 25.011 7.03442 22.4797 7.03442Z" fill="#444444"></path></g><defs><clipPath id="clip0_0_156"><rect width="20" height="20" fill="white" transform="translate(7 7)"></rect></clipPath></defs></svg> 