<?xml version="1.0" encoding="UTF-8"?> <svg xmlns="http://www.w3.org/2000/svg" width="34" height="34" viewBox="0 0 34 34" fill="none"><path d="M0 17C0 7.61116 7.61116 0 17 0C26.3888 0 34 7.61116 34 17C34 26.3888 26.3888 34 17 34C7.61116 34 0 26.3888 0 17Z" fill="white"></path><g clip-path="url(#clip0_0_162)"><path fill-rule="evenodd" clip-rule="evenodd" d="M14.1414 7C13.4637 7 12.7707 7.21917 12.2229 7.67004C11.6672 8.12738 11.2834 8.8142 11.2834 9.60487V11.8084H9.14286C7.98684 11.8084 7 12.7156 7 13.8947V24.8711C7 26.0503 7.98684 26.9574 9.14286 26.9574H24.8571C26.0131 26.9574 27 26.0503 27 24.8711V13.8947C27 12.7156 26.0131 11.8084 24.8571 11.8084H22.7166V9.60487C22.7166 8.8142 22.3329 8.12738 21.7771 7.67004C21.2293 7.21917 20.5363 7 19.8587 7H14.1414ZM19.8594 11.8084V9.85714H14.1414L14.1406 11.8084H19.8594ZM13.25 19.3829C13.25 18.8898 13.6497 18.4901 14.1429 18.4901H16.1071V16.5258C16.1071 16.0327 16.5069 15.6329 17 15.6329C17.4931 15.6329 17.8929 16.0327 17.8929 16.5258V18.4901H19.8571C20.3503 18.4901 20.75 18.8898 20.75 19.3829C20.75 19.876 20.3503 20.2758 19.8571 20.2758H17.8929V22.24C17.8929 22.7331 17.4931 23.1329 17 23.1329C16.5069 23.1329 16.1071 22.7331 16.1071 22.24V20.2758H14.1429C13.6497 20.2758 13.25 19.876 13.25 19.3829Z" fill="#444444"></path></g><defs><clipPath id="clip0_0_162"><rect width="20" height="20" fill="white" transform="translate(7 7)"></rect></clipPath></defs></svg> 