<?xml version="1.0" encoding="UTF-8"?> <svg xmlns="http://www.w3.org/2000/svg" width="34" height="34" viewBox="0 0 34 34" fill="none"><path d="M0 17C0 7.61116 7.61116 0 17 0C26.3888 0 34 7.61116 34 17C34 26.3888 26.3888 34 17 34C7.61116 34 0 26.3888 0 17Z" fill="white"></path><path fill-rule="evenodd" clip-rule="evenodd" d="M10.5686 9.4942C10.5686 9.33225 10.6999 9.20096 10.8619 9.20096H23.1439C23.3059 9.20096 23.4372 9.33225 23.4372 9.4942V15.5713H10.5686V9.4942ZM25.58 22.4586C25.58 23.604 24.7894 24.5647 23.7243 24.825V25.5587C23.7243 26.3476 23.0847 26.9873 22.2957 26.9873C21.5067 26.9873 20.8672 26.3476 20.8672 25.5587V24.8947H13.1386V25.5587C13.1386 26.3476 12.499 26.9873 11.71 26.9873C10.921 26.9873 10.2814 26.3476 10.2814 25.5587V24.825C9.21625 24.5647 8.42578 23.604 8.42578 22.4586V9.4942C8.42578 8.14878 9.51646 7.05811 10.8619 7.05811H23.1439C24.4893 7.05811 25.58 8.14878 25.58 9.4942V22.4586ZM12.7172 21.2856C13.5061 21.2856 14.1457 20.646 14.1457 19.857C14.1457 19.068 13.5061 18.4284 12.7172 18.4284C11.9282 18.4284 11.2886 19.068 11.2886 19.857C11.2886 20.646 11.9282 21.2856 12.7172 21.2856ZM21.2886 21.2856C22.0776 21.2856 22.7172 20.646 22.7172 19.857C22.7172 19.068 22.0776 18.4284 21.2886 18.4284C20.4996 18.4284 19.86 19.068 19.86 19.857C19.86 20.646 20.4996 21.2856 21.2886 21.2856Z" fill="#444444"></path></svg> 