<?xml version="1.0" encoding="UTF-8"?> <svg xmlns="http://www.w3.org/2000/svg" width="34" height="34" viewBox="0 0 34 34" fill="none"><rect width="34" height="34" rx="17" fill="white"></rect><path fill-rule="evenodd" clip-rule="evenodd" d="M16.9983 7.07227C16.7141 7.07227 16.4416 7.18516 16.2406 7.3861C16.0397 7.58704 15.9268 7.85958 15.9268 8.14375L15.927 11.2479L14.3405 14.264C14.2866 14.3666 14.2584 14.4807 14.2584 14.5966L14.2584 18.5061H19.6714L19.6714 14.5966C19.6714 14.4807 19.6432 14.3666 19.5893 14.264L18.0698 11.3753L18.0697 9.21513H18.9571C19.5488 9.21513 20.0285 8.73543 20.0285 8.14369C20.0285 7.55196 19.5488 7.07227 18.9571 7.07227H16.9983ZM20.8075 20.2918H13.121V26.8044C13.121 26.8168 13.1208 26.8294 13.1203 26.8417H15.7099V24.8544C15.7099 24.1428 16.2867 23.5661 16.9982 23.5661C17.7097 23.5661 18.2865 24.1428 18.2865 24.8544V26.8417H20.8083C20.8079 26.8326 20.8077 26.8233 20.8076 26.8138C20.8076 26.8107 20.8075 26.8076 20.8075 26.8044V20.2918ZM23.2853 26.8417H22.5925C22.593 26.8294 22.5933 26.8168 22.5933 26.8044V16.4935C22.6025 16.4237 22.6219 16.3556 22.6512 16.2912L24.0779 13.1506C24.1937 12.8956 24.448 12.7318 24.7282 12.7318C25.0083 12.7318 25.2626 12.8956 25.3786 13.1506L26.8053 16.2912C26.8475 16.384 26.8693 16.4847 26.8693 16.5867V26.1276C26.8693 26.5221 26.5495 26.8418 26.155 26.8418H23.3015L23.2853 26.8417ZM11.3361 26.8417C11.3356 26.8294 11.3353 26.8168 11.3353 26.8044V16.4992C11.3265 16.4275 11.3068 16.3573 11.2767 16.2912L9.84997 13.1506C9.7341 12.8956 9.4798 12.7318 9.19964 12.7318C8.9195 12.7318 8.6652 12.8956 8.54933 13.1506L7.12256 16.2912C7.0804 16.384 7.05859 16.4847 7.05859 16.5867V26.1276C7.05859 26.5221 7.37839 26.8418 7.77288 26.8418H10.6264L10.6425 26.8417H11.3361Z" fill="#444444"></path></svg> 