<?xml version="1.0" encoding="UTF-8"?> <svg xmlns="http://www.w3.org/2000/svg" width="34" height="34" viewBox="0 0 34 34" fill="none"><rect width="34" height="34" rx="17" fill="white"></rect><g clip-path="url(#clip0_0_116)"><path fill-rule="evenodd" clip-rule="evenodd" d="M27 17C27 22.5229 22.5229 27 17 27C11.4772 27 7 22.5229 7 17C7 11.4772 11.4772 7 17 7C22.5229 7 27 11.4772 27 17ZM19.1431 12.0001C19.1431 13.1837 18.1837 14.1431 17.0001 14.1431C15.8166 14.1431 14.8571 13.1837 14.8571 12.0001C14.8571 10.8166 15.8166 9.85714 17.0001 9.85714C18.1837 9.85714 19.1431 10.8166 19.1431 12.0001ZM18.6261 23.6567L19.0638 20.1554H20.0952C20.3802 20.1554 20.6111 19.9244 20.6111 19.6395V18.6077C20.6111 16.6134 18.9942 14.9967 16.9999 14.9967C15.0055 14.9967 13.3889 16.6134 13.3889 18.6077V19.6395C13.3889 19.9244 13.6199 20.1554 13.9048 20.1554H14.9363L15.3739 23.6567C15.4186 24.0141 15.7225 24.2824 16.0827 24.2824H17.9173C18.2776 24.2824 18.5814 24.0141 18.6261 23.6567Z" fill="#444444"></path></g><defs><clipPath id="clip0_0_116"><rect width="20" height="20" fill="white" transform="translate(7 7)"></rect></clipPath></defs></svg> 